<svg width="393" height="852" viewBox="0 0 393 852" fill="none" xmlns="http://www.w3.org/2000/svg">
<path fill-rule="evenodd" clip-rule="evenodd" d="M614.006 -5.38258L591.496 19.5563C569.681 48.6043 526.051 106.7 479.642 148.36C435.595 189.62 386.407 214.844 331.66 207.195C276.913 199.546 216.608 159.025 168.809 192.466C123.372 225.509 88.08 332.913 36.1124 341.701C-15.8553 350.488 -84.4983 260.658 -144.804 220.136C-202.747 179.216 -254.714 188.003 -280.698 192.397L-306.682 196.79L-331 52.9732L-305.017 48.5795C-279.033 44.1859 -227.065 35.3986 -177.46 27.0107C-125.492 18.2234 -73.5244 9.43609 -21.5567 0.648785C30.4109 -8.13852 82.3786 -16.9258 131.984 -25.3137C183.952 -34.101 235.919 -42.8883 287.887 -51.6756C339.855 -60.4629 391.822 -69.2502 441.428 -77.6381C493.395 -86.4254 545.363 -95.2127 571.347 -99.6064L597.331 -104L614.006 -5.38258Z" fill="#6498FF"/>
<path fill-rule="evenodd" clip-rule="evenodd" d="M2214.01 2463.42L2191.5 2488.36C2169.68 2517.4 2126.05 2575.5 2079.64 2617.16C2035.6 2658.42 1986.41 2683.64 1931.66 2675.99C1876.91 2668.35 1816.61 2627.82 1768.81 2661.27C1723.37 2694.31 1688.08 2801.71 1636.11 2810.5C1584.15 2819.29 1515.5 2729.46 1455.2 2688.94C1397.25 2648.01 1345.29 2656.8 1319.3 2661.2L1293.32 2665.59L1269 2521.77L1294.98 2517.38C1320.97 2512.99 1372.94 2504.2 1422.54 2495.81C1474.51 2487.02 1526.48 2478.24 1578.44 2469.45C1630.41 2460.66 1682.38 2451.87 1731.98 2443.49C1783.95 2434.7 1835.92 2425.91 1887.89 2417.12C1939.85 2408.34 1991.82 2399.55 2041.43 2391.16C2093.4 2382.37 2145.36 2373.59 2171.35 2369.19L2197.33 2364.8L2214.01 2463.42Z" fill="#6498FF"/>
<path fill-rule="evenodd" clip-rule="evenodd" d="M614.006 -5.38258L591.496 19.5563C569.681 48.6043 526.051 106.7 479.642 148.36C435.595 189.62 386.407 214.844 331.66 207.195C276.913 199.546 216.608 159.025 168.809 192.466C123.372 225.509 88.08 332.913 36.1124 341.701C-15.8553 350.488 -84.4983 260.658 -144.804 220.136C-202.747 179.216 -254.714 188.003 -280.698 192.397L-306.682 196.79L-331 52.9732L-305.017 48.5795C-279.033 44.1859 -227.065 35.3986 -177.46 27.0107C-125.492 18.2234 -73.5244 9.43609 -21.5567 0.648785C30.4109 -8.13852 82.3786 -16.9258 131.984 -25.3137C183.952 -34.101 235.919 -42.8883 287.887 -51.6756C339.855 -60.4629 391.822 -69.2502 441.428 -77.6381C493.395 -86.4254 545.363 -95.2127 571.347 -99.6064L597.331 -104L614.006 -5.38258Z" stroke="black"/>
<path fill-rule="evenodd" clip-rule="evenodd" d="M2214.01 2463.42L2191.5 2488.36C2169.68 2517.4 2126.05 2575.5 2079.64 2617.16C2035.6 2658.42 1986.41 2683.64 1931.66 2675.99C1876.91 2668.35 1816.61 2627.82 1768.81 2661.27C1723.37 2694.31 1688.08 2801.71 1636.11 2810.5C1584.15 2819.29 1515.5 2729.46 1455.2 2688.94C1397.25 2648.01 1345.29 2656.8 1319.3 2661.2L1293.32 2665.59L1269 2521.77L1294.98 2517.38C1320.97 2512.99 1372.94 2504.2 1422.54 2495.81C1474.51 2487.02 1526.48 2478.24 1578.44 2469.45C1630.41 2460.66 1682.38 2451.87 1731.98 2443.49C1783.95 2434.7 1835.92 2425.91 1887.89 2417.12C1939.85 2408.34 1991.82 2399.55 2041.43 2391.16C2093.4 2382.37 2145.36 2373.59 2171.35 2369.19L2197.33 2364.8L2214.01 2463.42Z" stroke="black"/>
</svg>
